<svg version="1.0" xmlns="http://www.w3.org/2000/svg" width="5324.000000pt" height="3432.000000pt" viewBox="0 0 5324.000000 3432.000000" preserveAspectRatio="xMidYMid meet"> 
  <g transform="translate(0.000000,3432.000000) scale(0.100000,-0.100000)" fill="red" stroke="none"> 
    <path d="M3720 34313 c-615 -58 -1156 -225 -1660 -511 -723 -409 -1300 -1027 -1661 -1777 -222 -462 -349 -943 -388 -1470 -14 -178 15 -26243 29 -26600 11 -276 24 -408 66 -625 210 -1112 870 -2077 1834 -2683 514 -323 1065 -513 1720 -594 139 -17 1087 -18 22955 -18 22050 0 22815 1 22965 18 509 61 929 182 1359 392 706 346 1287 880 1693 1555 328 545 517 1145 568 1800 13 171 -16 26284 -30 26620 -11 278 -27 412 -75 655 -67 336 -169 640 -319 950 -206 426 -424 738 -746 1069 -673 692 -1531 1109 -2495 1211 -123 13 -2847 15 -22960 13 -12551 -1 -22836 -3 -22855 -5z m18280 -10850 c1817 -3283 3308 -5975 3313 -5983 7 -12 -812 -1480 -3303 -5918 l-3313 -5902 -2394 0 -2395 0 20 33 c149 246 7005 11925 7005 11933 0 9 -6936 11664 -7011 11782 l-14 22 2395 0 2394 0 3303 -5967z m8817 -3 c1817 -3281 3306 -5974 3309 -5985 4 -15 -913 -1656 -3297 -5905 -1816 -3237 -3307 -5891 -3313 -5898 -9 -9 -498 -12 -2403 -10 l-2391 3 2964 5045 c1631 2775 3212 5466 3514 5981 l550 936 -3496 5869 c-1923 3228 -3505 5884 -3516 5902 l-20 32 2399 -2 2398 -3 3302 -5965z m10068 5947 c99 -10 254 -26 345 -37 1399 -171 2579 -685 3535 -1540 167 -149 479 -470 609 -625 620 -741 1022 -1561 1236 -2521 116 -521 164 -996 164 -1609 0 -697 -57 -1205 -199 -1782 -307 -1244 -971 -2187 -1948 -2768 -54 -32 -96 -59 -95 -60 2 -2 53 -20 113 -40 941 -321 1690 -901 2287 -1770 267 -388 533 -923 698 -1400 350 -1016 453 -2241 295 -3511 -147 -1172 -531 -2270 -1114 -3184 -837 -1314 -2128 -2240 -3646 -2619 -596 -148 -1344 -236 -2325 -271 -164 -6 -1559 -10 -3462 -10 l-3188 0 0 11885 0 11886 3258 -4 c2970 -3 3273 -5 3437 -20z"/> 
    <path d="M38690 22559 l0 -2692 458 6 c576 8 820 26 1191 88 1037 173 1716 617 2065 1351 205 431 296 923 283 1543 -5 271 -16 372 -63 583 -118 529 -420 965 -879 1265 -122 79 -393 213 -546 269 -241 89 -548 164 -844 207 -353 51 -703 71 -1277 71 l-388 0 0 -2691z"/> 
    <path d="M38690 12934 l0 -3096 878 5 c851 5 977 9 1307 42 709 72 1290 241 1733 503 586 348 950 876 1096 1592 113 553 92 1272 -54 1825 -315 1195 -1239 1937 -2680 2154 -382 58 -671 71 -1567 71 l-713 0 0 -3096z"/>
  </g>
</svg>
